<?xml version="1.0" encoding="UTF-8" standalone="no"?>
<!-- Created with Inkscape (http://www.inkscape.org/) -->

<svg
   width="2316.3342"
   height="512.01123"
   viewBox="0 0 2316.3342 512.01123"
   version="1.1"
   id="svg1"
   xml:space="preserve"
   xmlns="http://www.w3.org/2000/svg"
   xmlns:svg="http://www.w3.org/2000/svg"><defs
     id="defs1" /><g
     id="layer5"
     style="display:inline"
     transform="translate(367.66798)"><g
       id="layer1"
       style="display:inline"><path
         style="display:inline;fill:#ffd42a;stroke:#000000;stroke-width:20.7379;stroke-linecap:round;stroke-linejoin:round;stroke-dasharray:none;stroke-opacity:1"
         d="m 187.66581,477.11982 c -7.74998,-13.48735 -17.0957,-29.84743 -20.76827,-36.35577 -3.67258,-6.50833 -11.40067,-19.784 -17.17356,-29.50153 -5.77288,-9.71754 -13.9999,-24.08997 -18.28222,-31.93871 -4.28235,-7.84879 -9.75999,-17.32845 -12.17257,-21.06597 -2.41257,-3.7375 -9.12987,-15.35775 -14.9273,-25.82279 C 98.54445,321.97001 91.669,310.04398 89.06313,305.9327 84.17139,298.21505 62.98796,261.1994 55.22943,246.81212 44.921233,227.69677 38.345077,199.08833 38.345077,173.35956 c 0,-34.88478 9.369943,-64.17294 29.914863,-93.506644 11.33227,-16.18002 16.1383,-21.302064 33.28145,-35.46978 39.3208,-32.496152 100.18675,-42.6959732 152.89967,-25.622685 30.79013,9.972677 60.53786,31.83199 79.19409,58.193639 20.71652,29.27285 29.87071,54.88518 31.80336,88.98198 1.61693,28.5269 -7.00756,66.21269 -19.75282,86.31242 -1.89598,2.99 -8.1812,13.99866 -13.96718,24.4637 -5.78598,10.46501 -13.35416,23.61425 -16.8182,29.22051 -3.464,5.60628 -11.36813,19.06131 -17.5647,29.90009 -19.87787,34.76938 -28.19543,49.18647 -39.59679,68.63426 -6.13518,10.46502 -14.64547,25.44903 -18.91181,33.29779 -4.2663,7.84878 -8.54964,15.18787 -9.51851,16.30913 -1.78314,2.06361 -9.65198,15.8915 -20.68842,36.35578 -3.32581,6.16688 -6.23065,11.21252 -6.45519,11.21252 -0.22452,0 -6.74911,-11.0351 -14.49908,-24.52245 z m 42.40958,-222.62669 c 18.48157,-5.96746 38.73634,-23.4045 46.78901,-40.28008 7.25952,-15.21338 9.32347,-24.08903 9.32786,-40.11248 0.005,-16.75474 -2.51122,-27.49845 -9.70666,-41.45237 -9.63035,-18.67591 -32.49548,-36.47797 -54.07045,-42.09753 -9.36787,-2.44003 -28.72577,-2.709316 -38.91987,-0.541426 -9.4387,2.007261 -28.54511,11.745726 -37.10222,18.910896 -19.89388,16.65784 -30.53195,42.49459 -28.7961,69.93726 1.47903,23.38229 8.82431,39.96147 24.46273,55.21531 12.02636,11.73063 20.21172,16.6983 34.91299,21.18863 8.84434,2.70141 12.44132,3.04738 27.1819,2.61462 12.52465,-0.36771 19.33573,-1.25661 25.92081,-3.38283 z"
         id="path13" /><path
         style="display:inline;fill:#ffd42a;stroke-width:0.588769"
         d="m 179.9185,273.21795 c -11.59881,-2.48647 -26.07895,-8.53021 -34.59803,-14.44055 -6.42558,-4.45792 -15.71147,-12.80227 -21.50872,-19.32789 -15.16699,-17.07251 -22.43199,-35.07196 -24.38722,-60.42084 -2.13387,-27.66423 6.17657,-54.26228 23.47638,-75.13754 9.31803,-11.243842 23.38376,-21.126834 41.37996,-29.074747 13.29092,-5.869852 16.99932,-6.661144 33.28458,-7.102215 17.71316,-0.479723 28.24058,0.928059 39.10088,5.228808 20.53786,8.133132 40.35517,23.617097 52.02804,40.651384 3.57123,5.21151 9.71911,17.89029 11.77938,24.29259 3.83103,11.905 4.7437,19.85363 4.34395,37.83211 -0.27025,12.15388 -0.50225,14.78745 -1.7764,20.16608 -2.72093,11.48586 -9.11943,26.31655 -15.0037,34.77606 -9.45955,13.59949 -24.0531,26.33437 -38.9884,34.02273 -14.81785,7.62789 -25.25012,9.5421 -51.51722,9.4529 -9.588,-0.0326 -14.7305,-0.30084 -17.61348,-0.91888 z"
         id="path17" /></g><g
       id="layer6"
       style="display:inline"><circle
         style="fill:#000000;stroke-width:1.11382"
         id="path18"
         cx="202"
         cy="344.71982"
         r="35.642384" /><path
         style="fill:#000000"
         d="m 256.0023,288 h 0.002 a 23.005319,23.005319 140.45383 0 0 22.58969,-18.6521 L 305.83146,128.00972 A 26.916416,26.916416 50.453831 0 0 279.40133,96 h -46.86455 a 27.14178,27.14178 129.83445 0 0 -26.70175,32.00929 l 25.3985,139.32891 A 25.176944,25.176944 39.834448 0 0 256.0023,288 Z"
         id="path19"
         transform="matrix(1.1138245,0,0,1.1138245,-82.979097,-25.0699)" /></g></g><g
     id="layer2"
     style="display:inline"
     transform="translate(313.21451)"><path
       d="M 61.28532,155.50659 C 57.718655,64.913296 -9.3346475,-7.8125e-6 -129.17459,-7.8125e-6 c -115.55995,0 -173.33992,60.6333058125 -173.33992,145.5199378125 0,59.91997 28.53332,94.15995 79.17996,116.98661 33.52665,14.97999 71.3333,23.53999 129.826608,36.37998 59.206639,12.84 73.473299,32.09999 73.473299,59.91998 0,42.08664 -33.526651,67.0533 -92.019957,67.0533 -63.48664,0 -104.14662,-29.95999 -105.57329,-78.46663 h -95.58662 c 2.14,106.28662 83.45996,158.35992 200.44658,158.35992 110.5666126,0 189.033243,-46.36664 189.033243,-150.51326 0,-67.0533 -32.813318,-96.29996 -74.1866323,-114.84661 C -32.874637,224.69989 -84.947946,211.8599 -138.44792,199.0199 c -52.78664,-12.83999 -73.4733,-29.95998 -73.4733,-59.91997 0,-35.66665 29.24665,-55.639976 84.88663,-55.639976 59.919969,0 89.166622,23.539986 94.159953,72.046636 z"
       id="text1"
       style="font-size:713.333px;font-family:Coolvetica;-inkscape-font-specification:Coolvetica;stroke:#000000;stroke-width:0;stroke-linecap:round;stroke-linejoin:round"
       aria-label="S" /><path
       d="M 811.14146,155.50659 C 807.5748,64.913296 740.52149,-7.8125e-6 620.68155,-7.8125e-6 505.1216,-7.8125e-6 447.34163,60.633298 447.34163,145.51993 c 0,59.91997 28.53332,94.15995 79.17996,116.98661 33.52665,14.97999 71.3333,23.53999 129.82661,36.37998 59.20664,12.84 73.4733,32.09999 73.4733,59.91998 0,42.08664 -33.52665,67.0533 -92.01996,67.0533 -63.48664,0 -104.14662,-29.95999 -105.57329,-78.46663 h -95.58662 c 2.14,106.28662 83.45996,158.35992 200.44658,158.35992 110.56661,0 189.03324,-46.36664 189.03324,-150.51326 0,-67.0533 -32.81331,-96.29996 -74.18663,-114.84661 -34.95332,-15.69333 -87.02663,-28.53332 -140.5266,-41.37332 -52.78664,-12.83999 -73.4733,-29.95998 -73.4733,-59.91997 0,-35.66665 29.24665,-55.639976 84.88663,-55.639976 59.91997,0 89.16662,23.539986 94.15995,72.046636 z M 1074.3611,97.726614 c 49.22,0 69.1934,26.393326 69.1934,63.486636 0,36.37999 -19.9734,62.77331 -72.76,62.77331 H 946.67454 V 97.726614 Z M 1223.4477,489.34644 V 355.23983 c 0,-55.63997 -15.6933,-79.17996 -57.7799,-92.73329 45.6533,-16.40666 70.6199,-59.20664 70.6199,-109.85328 0,-78.466635 -57.7799,-136.959942 -145.5199,-136.959942 H 850.37459 V 489.34644 h 96.29995 V 303.87985 h 105.57326 c 57.0667,0 74.1867,17.83333 74.1867,63.48664 v 121.97995 z m 398.7525,0 v -84.1733 H 1358.9804 V 283.1932 h 231.8332 V 199.73323 H 1358.9804 V 98.439947 h 251.8065 V 15.693318 H 1262.6804 V 489.34644 Z M 1741.3266,236.82655 V 97.726614 h 94.16 c 57.0666,0 80.6066,29.246656 80.6066,68.479966 0,41.37332 -23.54,70.61997 -80.6066,70.61997 z m 0,252.51989 V 317.43318 h 109.8533 c 92.7333,0 151.9399,-62.05997 151.9399,-148.37326 0,-85.599966 -59.2066,-153.366602 -151.9399,-153.366602 H 1642.1733 V 489.34644 Z"
       id="text2"
       style="font-size:713.333px;font-family:Coolvetica;-inkscape-font-specification:Coolvetica;stroke:#000000;stroke-width:0;stroke-linecap:round;stroke-linejoin:round"
       aria-label="SREP" /></g></svg>
